<svg xmlns="http://www.w3.org/2000/svg" xmlns:xlink="http://www.w3.org/1999/xlink" width="" zoomAndPan="magnify" viewBox="0 0 375 374.999991" height="" preserveAspectRatio="xMidYMid meet" version="1.0"><defs><g/><clipPath id="679d209846"><path d="M 254.054688 174.589844 L 301.304688 174.589844 L 301.304688 221 L 254.054688 221 Z M 254.054688 174.589844 " clip-rule="nonzero"/></clipPath><clipPath id="ac5521cee7"><path d="M 254.054688 181.339844 L 254.054688 214.144531 C 254.054688 217.871094 257.078125 220.894531 260.804688 220.894531 L 294.292969 220.894531 C 298.019531 220.894531 301.042969 217.871094 301.042969 214.144531 L 301.042969 181.339844 C 301.042969 177.613281 298.019531 174.589844 294.292969 174.589844 L 260.804688 174.589844 C 257.078125 174.589844 254.054688 177.613281 254.054688 181.339844 Z M 254.054688 181.339844 " clip-rule="nonzero"/></clipPath><clipPath id="3f0d7856e4"><path d="M 193.289062 148.949219 L 216.949219 148.949219 L 216.949219 174.117188 L 193.289062 174.117188 Z M 193.289062 148.949219 " clip-rule="nonzero"/></clipPath><clipPath id="7c5b624f19"><path d="M 199.878906 153.28125 L 208.128906 153.28125 L 208.128906 161.535156 L 199.878906 161.535156 Z M 199.878906 153.28125 " clip-rule="nonzero"/></clipPath><clipPath id="105b4477ba"><path d="M 204.003906 153.28125 C 201.722656 153.28125 199.878906 155.128906 199.878906 157.40625 C 199.878906 159.6875 201.722656 161.535156 204.003906 161.535156 C 206.28125 161.535156 208.128906 159.6875 208.128906 157.40625 C 208.128906 155.128906 206.28125 153.28125 204.003906 153.28125 Z M 204.003906 153.28125 " clip-rule="nonzero"/></clipPath><clipPath id="35759e3f4f"><path d="M 205.550781 161 L 216.800781 161 L 216.800781 171 L 205.550781 171 Z M 205.550781 161 " clip-rule="nonzero"/></clipPath><clipPath id="330909745d"><path d="M 187.5 160 L 204 160 L 204 174 L 187.5 174 Z M 187.5 160 " clip-rule="nonzero"/></clipPath></defs><rect x="-37.5" width="450" fill="#ffffff" y="-37.499999" height="449.999989" fill-opacity="1"/><rect x="-37.5" width="450" fill="#ffffff" y="-37.499999" height="449.999989" fill-opacity="1"/><g fill="#365233" fill-opacity="1"><g transform="translate(59.753907, 213.749986)"><g/></g></g><g fill="#365233" fill-opacity="1"><g transform="translate(78.480468, 213.749986)"><g><path d="M 31.828125 -4.46875 C 28.316406 -1.488281 24.234375 0 19.578125 0 C 14.441406 -0.0507812 10.078125 -1.898438 6.484375 -5.546875 C 2.878906 -9.191406 1.101562 -13.554688 1.15625 -18.640625 C 1.195312 -23.785156 3.046875 -28.15625 6.703125 -31.75 C 10.347656 -35.351562 14.710938 -37.128906 19.796875 -37.078125 C 24.410156 -37.035156 28.441406 -35.5 31.890625 -32.46875 L 25.203125 -25.84375 C 23.566406 -27.039062 21.742188 -27.640625 19.734375 -27.640625 C 17.234375 -27.640625 15.070312 -26.78125 13.25 -25.0625 C 11.46875 -23.28125 10.578125 -21.117188 10.578125 -18.578125 C 10.484375 -16.078125 11.347656 -13.914062 13.171875 -12.09375 C 14.898438 -10.363281 17.0625 -9.453125 19.65625 -9.359375 C 21.675781 -9.359375 23.5 -9.957031 25.125 -11.15625 Z M 31.828125 -4.46875 "/></g></g></g><g fill="#365233" fill-opacity="1"><g transform="translate(111.456456, 213.749986)"><g><path d="M 2.15625 -37.21875 L 11.515625 -37.21875 L 11.515625 -18.5 C 11.515625 -17.78125 11.632812 -16.96875 11.875 -16.0625 C 12.164062 -14.957031 12.597656 -13.945312 13.171875 -13.03125 C 14.753906 -10.632812 17.007812 -9.4375 19.9375 -9.4375 C 23.15625 -9.4375 25.484375 -10.660156 26.921875 -13.109375 C 27.453125 -13.972656 27.835938 -14.976562 28.078125 -16.125 C 28.273438 -16.945312 28.375 -17.765625 28.375 -18.578125 L 28.375 -37.21875 L 38.453125 -37.21875 L 38.453125 0 L 28.375 0 L 28.375 -3.890625 C 26.019531 -1.296875 22.992188 0 19.296875 0 C 14.546875 0.0507812 10.515625 -1.648438 7.203125 -5.109375 C 3.835938 -8.515625 2.15625 -12.738281 2.15625 -17.78125 Z M 2.15625 -37.21875 "/></g></g></g><g fill="#365233" fill-opacity="1"><g transform="translate(152.06444, 213.749986)"><g><path d="M 12.234375 -50.046875 L 12.234375 0 L 2.15625 0 L 2.15625 -50.046875 Z M 12.234375 -50.046875 "/></g></g></g><g fill="#365233" fill-opacity="1"><g transform="translate(166.464437, 213.749986)"><g><path d="M 28.875 -37.078125 L 28.875 -27 L 20.59375 -27 L 20.59375 0 L 10.515625 0 L 10.515625 -27 L 2.15625 -27 L 2.15625 -37.078125 L 10.515625 -37.078125 L 10.515625 -50.046875 L 20.59375 -50.046875 L 20.59375 -37.078125 Z M 28.875 -37.078125 "/></g></g></g><g fill="#365233" fill-opacity="1"><g transform="translate(197.496418, 213.749986)"><g><path d="M 12.171875 -50.1875 L 12.171875 -41.6875 L 2.15625 -41.6875 L 2.15625 -50.1875 Z M 12.234375 -37.015625 L 12.234375 0 L 2.15625 0 L 2.15625 -37.015625 Z M 12.234375 -37.015625 "/></g></g></g><g fill="#365233" fill-opacity="1"><g transform="translate(211.896414, 213.749986)"><g><path d="M 45 -37.078125 L 27.796875 0 L 20.15625 0 L 2.15625 -37.078125 L 13.890625 -37.078125 L 23.96875 -16.34375 L 33.34375 -37.078125 Z M 45 -37.078125 "/></g></g></g><g fill="#365233" fill-opacity="1"><g transform="translate(259.066397, 213.749986)"><g/></g></g><g fill="#365233" fill-opacity="1"><g transform="translate(277.78639, 213.749986)"><g/></g></g><g fill="#365233" fill-opacity="1"><g transform="translate(296.506382, 213.749986)"><g/></g></g><g clip-path="url(#679d209846)"><g clip-path="url(#ac5521cee7)"><path fill="#365233" d="M 287.703125 211.820312 L 301.117188 225.238281 L 299.214844 227.140625 C 298.742188 227.617188 298.472656 228.261719 298.472656 228.933594 C 298.472656 229.605469 298.742188 230.25 299.214844 230.726562 C 299.214844 230.726562 310.765625 242.273438 316.875 248.386719 C 319.90625 251.414062 324.816406 251.414062 327.84375 248.386719 L 327.847656 248.382812 C 330.878906 245.351562 330.878906 240.4375 327.847656 237.40625 L 310.191406 219.75 C 309.203125 218.757812 307.597656 218.757812 306.605469 219.75 L 304.707031 221.652344 L 291.285156 208.238281 C 294.054688 204.699219 295.707031 200.25 295.707031 195.414062 C 295.707031 183.921875 286.375 174.589844 274.878906 174.589844 C 263.386719 174.589844 254.054688 183.921875 254.054688 195.414062 C 254.054688 206.90625 263.386719 216.238281 274.878906 216.238281 C 279.714844 216.238281 284.167969 214.589844 287.703125 211.820312 Z M 308.398438 225.128906 L 324.261719 240.992188 C 325.316406 242.039062 325.316406 243.746094 324.261719 244.792969 C 324.261719 244.792969 324.257812 244.800781 324.257812 244.800781 C 323.210938 245.847656 321.511719 245.847656 320.460938 244.800781 C 320.460938 244.800781 304.597656 228.933594 304.597656 228.933594 Z M 274.878906 179.660156 C 283.578125 179.660156 290.636719 186.71875 290.636719 195.414062 C 290.636719 204.109375 283.578125 211.167969 274.878906 211.167969 C 266.183594 211.167969 259.125 204.109375 259.125 195.414062 C 259.125 186.71875 266.183594 179.660156 274.878906 179.660156 Z M 274.878906 187.5 C 279.25 187.5 282.796875 191.046875 282.796875 195.414062 C 282.796875 196.8125 283.929688 197.949219 285.332031 197.949219 C 286.730469 197.949219 287.867188 196.8125 287.867188 195.414062 C 287.867188 188.246094 282.046875 182.425781 274.878906 182.425781 C 273.480469 182.425781 272.34375 183.5625 272.34375 184.960938 C 272.34375 186.363281 273.480469 187.5 274.878906 187.5 Z M 274.878906 187.5 " fill-opacity="1" fill-rule="evenodd"/></g></g><g clip-path="url(#3f0d7856e4)"><path fill="#ffffff" d="M 193.289062 148.949219 L 216.949219 148.949219 L 216.949219 174.089844 L 193.289062 174.089844 Z M 193.289062 148.949219 " fill-opacity="1" fill-rule="nonzero"/></g><g clip-path="url(#7c5b624f19)"><g clip-path="url(#105b4477ba)"><path fill="#f4ea00" d="M 199.878906 153.28125 L 208.128906 153.28125 L 208.128906 161.535156 L 199.878906 161.535156 Z M 199.878906 153.28125 " fill-opacity="1" fill-rule="nonzero"/></g></g><g clip-path="url(#35759e3f4f)"><path fill="#eec759" d="M 214.398438 162.539062 C 209.027344 162.515625 206.144531 165.023438 205.898438 170.210938 C 205.894531 170.277344 205.800781 170.28125 205.789062 170.21875 C 205.550781 168.519531 205.597656 166.976562 206.027344 165.632812 C 207.449219 161.199219 212.867188 160.617188 216.710938 162.019531 C 216.902344 162.089844 216.941406 162.335938 216.78125 162.464844 C 213.78125 164.863281 214.191406 171.40625 206.890625 168.570312 C 208.03125 165.027344 210.371094 162.832031 214.398438 162.539062 " fill-opacity="1" fill-rule="evenodd"/></g><g clip-path="url(#330909745d)"><path fill="#eec759" d="M 191.183594 162.652344 C 198.964844 162.617188 203.140625 166.25 203.496094 173.765625 C 203.5 173.863281 203.640625 173.867188 203.652344 173.773438 C 204 171.316406 203.933594 169.078125 203.308594 167.132812 C 201.25 160.707031 193.402344 159.867188 187.832031 161.898438 C 187.554688 162 187.5 162.359375 187.730469 162.542969 C 192.074219 166.015625 191.484375 175.496094 202.058594 171.386719 C 200.40625 166.257812 197.019531 163.074219 191.183594 162.652344 " fill-opacity="1" fill-rule="evenodd"/></g></svg>